<svg xmlns="http://www.w3.org/2000/svg" viewBox="0 0 512 288"><path d="M0 0h512v288H0z"/><path d="M18 18h12v12H18z" style="animation:show 7s infinite;animation-delay:162ms;fill:#4392ff"/><path d="M18 34h12v12H18z" style="animation:show 7s infinite;animation-delay:238.5ms;fill:#4392ff"/><path d="M18 50h12v12H18z" style="animation:show 7s infinite;animation-delay:336ms;fill:#1b4f97"/><path d="M34 18h12v12H34z" style="animation:show 7s infinite;animation-delay:171ms;fill:#4392ff"/><path d="M34 34h12v12H34z" style="animation:show 7s infinite;animation-delay:229.5ms;fill:#4392ff"/><path d="M34 50h12v12H34z" style="animation:show 7s infinite;animation-delay:336ms;fill:#1b4f97"/><path d="M50 18h12v12H50z" style="animation:show 7s infinite;animation-delay:165ms;fill:#4392ff"/><path d="M50 34h12v12H50z" style="animation:show 7s infinite;animation-delay:243ms;fill:#4392ff"/><path d="M50 50h12v12H50z" style="animation:show 7s infinite;animation-delay:312ms;fill:#1b4f97"/><path d="M66 18h12v12H66z" style="animation:show 7s infinite;animation-delay:171ms;fill:#4392ff"/><path d="M66 34h12v12H66z" style="animation:show 7s infinite;animation-delay:234ms;fill:#4392ff"/><path d="M66 50h12v12H66z" style="animation:show 7s infinite;animation-delay:336ms;fill:#4392ff"/><path d="M66 66h12v12H66z" style="animation:show 7s infinite;animation-delay:397.5ms;fill:#4392ff"/><path d="M66 82h12v12H66z" style="animation:show 7s infinite;animation-delay:531ms;fill:#4392ff"/><path d="M66 98h12v12H66z" style="animation:show 7s infinite;animation-delay:567ms;fill:#4392ff"/><path d="M66 114h12v12H66z" style="animation:show 7s infinite;animation-delay:648ms;fill:#4392ff"/><path d="M66 130h12v12H66z" style="animation:show 7s infinite;animation-delay:729ms;fill:#4392ff"/><path d="M66 146h12v12H66z" style="animation:show 7s infinite;animation-delay:780ms;fill:#4392ff"/><path d="M66 162h12v12H66z" style="animation:show 7s infinite;animation-delay:990ms;fill:#4392ff"/><path d="M66 178h12v12H66z" style="animation:show 7s infinite;animation-delay:1062ms;fill:#4392ff"/><path d="M66 194h12v12H66z" style="animation:show 7s infinite;animation-delay:1014ms;fill:#4392ff"/><path d="M66 210h12v12H66z" style="animation:show 7s infinite;animation-delay:1197ms;fill:#4392ff"/><path d="M66 226h12v12H66z" style="animation:show 7s infinite;animation-delay:1350ms;fill:#4392ff"/><path d="M66 242h12v12H66z" style="animation:show 7s infinite;animation-delay:1272ms;fill:#4392ff"/><path d="M66 258h12v12H66z" style="animation:show 7s infinite;animation-delay:1479ms;fill:#1b4f97"/><path d="M82 18h12v12H82z" style="animation:show 7s infinite;animation-delay:174ms;fill:#4392ff"/><path d="M82 34h12v12H82z" style="animation:show 7s infinite;animation-delay:252ms;fill:#4392ff"/><path d="M82 50h12v12H82z" style="animation:show 7s infinite;animation-delay:330ms;fill:#4392ff"/><path d="M82 66h12v12H82z" style="animation:show 7s infinite;animation-delay:397.5ms;fill:#4392ff"/><path d="M82 82h12v12H82z" style="animation:show 7s infinite;animation-delay:468ms;fill:#4392ff"/><path d="M82 98h12v12H82z" style="animation:show 7s infinite;animation-delay:598.5ms;fill:#4392ff"/><path d="M82 114h12v12H82z" style="animation:show 7s infinite;animation-delay:648ms;fill:#4392ff"/><path d="M82 130h12v12H82z" style="animation:show 7s infinite;animation-delay:769.5ms;fill:#4392ff"/><path d="M82 146h12v12H82z" style="animation:show 7s infinite;animation-delay:780ms;fill:#4392ff"/><path d="M82 162h12v12H82z" style="animation:show 7s infinite;animation-delay:907.5ms;fill:#4392ff"/><path d="M82 178h12v12H82z" style="animation:show 7s infinite;animation-delay:972ms;fill:#4392ff"/><path d="M82 194h12v12H82z" style="animation:show 7s infinite;animation-delay:1150.5ms;fill:#4392ff"/><path d="M82 210h12v12H82z" style="animation:show 7s infinite;animation-delay:1218ms;fill:#4392ff"/><path d="M82 226h12v12H82z" style="animation:show 7s infinite;animation-delay:1305ms;fill:#4392ff"/><path d="M82 242h12v12H82z" style="animation:show 7s infinite;animation-delay:1296ms;fill:#4392ff"/><path d="M82 258h12v12H82z" style="animation:show 7s infinite;animation-delay:1300.5ms;fill:#1b4f97"/><path d="M98 18h12v12H98z" style="animation:show 7s infinite;animation-delay:165ms;fill:#4392ff"/><path d="M98 34h12v12H98z" style="animation:show 7s infinite;animation-delay:265.5ms;fill:#4392ff"/><path d="M98 50h12v12H98z" style="animation:show 7s infinite;animation-delay:360ms;fill:#1b4f97"/><path d="M114 18h12v12h-12z" style="animation:show 7s infinite;animation-delay:162ms;fill:#4392ff"/><path d="M114 34h12v12h-12z" style="animation:show 7s infinite;animation-delay:256.5ms;fill:#4392ff"/><path d="M114 50h12v12h-12z" style="animation:show 7s infinite;animation-delay:342ms;fill:#1b4f97"/><path d="M130 18h12v12h-12z" style="animation:show 7s infinite;animation-delay:174ms;fill:#4392ff"/><path d="M130 34h12v12h-12z" style="animation:show 7s infinite;animation-delay:265.5ms;fill:#4392ff"/><path d="M130 50h12v12h-12z" style="animation:show 7s infinite;animation-delay:306ms;fill:#1b4f97"/><path d="M178 18h12v12h-12z" style="animation:show 7s infinite;animation-delay:156ms;fill:#fff85e"/><path d="M178 34h12v12h-12z" style="animation:show 7s infinite;animation-delay:247.5ms;fill:#fff85e"/><path d="M178 50h12v12h-12z" style="animation:show 7s infinite;animation-delay:342ms;fill:#fff85e"/><path d="M178 66h12v12h-12z" style="animation:show 7s infinite;animation-delay:450ms;fill:#b1ab22"/><path d="M178 194h12v12h-12z" style="animation:show 7s infinite;animation-delay:1150.5ms;fill:#fff85e"/><path d="M178 210h12v12h-12z" style="animation:show 7s infinite;animation-delay:1260ms;fill:#fff85e"/><path d="M178 226h12v12h-12z" style="animation:show 7s infinite;animation-delay:1215ms;fill:#fff85e"/><path d="M178 242h12v12h-12z" style="animation:show 7s infinite;animation-delay:1440ms;fill:#b1ab22"/><path d="M194 18h12v12h-12z" style="animation:show 7s infinite;animation-delay:177ms;fill:#fff85e"/><path d="M194 34h12v12h-12z" style="animation:show 7s infinite;animation-delay:256.5ms;fill:#fff85e"/><path d="M194 50h12v12h-12z" style="animation:show 7s infinite;animation-delay:336ms;fill:#fff85e"/><path d="M194 66h12v12h-12z" style="animation:show 7s infinite;animation-delay:405ms;fill:#b1ab22"/><path d="M194 194h12v12h-12z" style="animation:show 7s infinite;animation-delay:1170ms;fill:#fff85e"/><path d="M194 210h12v12h-12z" style="animation:show 7s infinite;animation-delay:1197ms;fill:#fff85e"/><path d="M194 226h12v12h-12z" style="animation:show 7s infinite;animation-delay:1215ms;fill:#fff85e"/><path d="M194 242h12v12h-12z" style="animation:show 7s infinite;animation-delay:1272ms;fill:#b1ab22"/><path d="M210 18h12v12h-12z" style="animation:show 7s infinite;animation-delay:156ms;fill:#fff85e"/><path d="M210 34h12v12h-12z" style="animation:show 7s infinite;animation-delay:234ms;fill:#fff85e"/><path d="M210 50h12v12h-12z" style="animation:show 7s infinite;animation-delay:324ms;fill:#fff85e"/><path d="M210 66h12v12h-12z" style="animation:show 7s infinite;animation-delay:450ms;fill:#b1ab22"/><path d="M210 210h12v12h-12z" style="animation:show 7s infinite;animation-delay:1134ms;fill:#fff85e"/><path d="M210 226h12v12h-12z" style="animation:show 7s infinite;animation-delay:1282.5ms;fill:#fff85e"/><path d="M210 242h12v12h-12z" style="animation:show 7s infinite;animation-delay:1272ms;fill:#fff85e"/><path d="M210 258h12v12h-12z" style="animation:show 7s infinite;animation-delay:1428ms;fill:#b1ab22"/><path d="M226 18h12v12h-12z" style="animation:show 7s infinite;animation-delay:165ms;fill:#fff85e"/><path d="M226 34h12v12h-12z" style="animation:show 7s infinite;animation-delay:234ms;fill:#fff85e"/><path d="M226 50h12v12h-12z" style="animation:show 7s infinite;animation-delay:360ms;fill:#fff85e"/><path d="M226 66h12v12h-12z" style="animation:show 7s infinite;animation-delay:450ms;fill:#b1ab22"/><path d="M226 210h12v12h-12z" style="animation:show 7s infinite;animation-delay:1176ms;fill:#fff85e"/><path d="M226 226h12v12h-12z" style="animation:show 7s infinite;animation-delay:1192.5ms;fill:#fff85e"/><path d="M226 242h12v12h-12z" style="animation:show 7s infinite;animation-delay:1344ms;fill:#fff85e"/><path d="M226 258h12v12h-12z" style="animation:show 7s infinite;animation-delay:1530ms;fill:#b1ab22"/><path d="M242 18h12v12h-12z" style="animation:show 7s infinite;animation-delay:174ms;fill:#fff85e"/><path d="M242 34h12v12h-12z" style="animation:show 7s infinite;animation-delay:261ms;fill:#fff85e"/><path d="M242 50h12v12h-12z" style="animation:show 7s infinite;animation-delay:360ms;fill:#fff85e"/><path d="M242 66h12v12h-12z" style="animation:show 7s infinite;animation-delay:390ms;fill:#fff85e"/><path d="M242 82h12v12h-12z" style="animation:show 7s infinite;animation-delay:540ms;fill:#fff85e"/><path d="M242 98h12v12h-12z" style="animation:show 7s infinite;animation-delay:577.5ms;fill:#fff85e"/><path d="M242 114h12v12h-12z" style="animation:show 7s infinite;animation-delay:624ms;fill:#fff85e"/><path d="M242 130h12v12h-12z" style="animation:show 7s infinite;animation-delay:688.5ms;fill:#fff85e"/><path d="M242 146h12v12h-12z" style="animation:show 7s infinite;animation-delay:900ms;fill:#fff85e"/><path d="M242 162h12v12h-12z" style="animation:show 7s infinite;animation-delay:841.5ms;fill:#fff85e"/><path d="M242 178h12v12h-12z" style="animation:show 7s infinite;animation-delay:1062ms;fill:#fff85e"/><path d="M242 194h12v12h-12z" style="animation:show 7s infinite;animation-delay:1170ms;fill:#fff85e"/><path d="M242 210h12v12h-12z" style="animation:show 7s infinite;animation-delay:1239ms;fill:#fff85e"/><path d="M242 226h12v12h-12z" style="animation:show 7s infinite;animation-delay:1215ms;fill:#fff85e"/><path d="M242 242h12v12h-12z" style="animation:show 7s infinite;animation-delay:1224ms;fill:#fff85e"/><path d="M242 258h12v12h-12z" style="animation:show 7s infinite;animation-delay:1428ms;fill:#b1ab22"/><path d="M258 18h12v12h-12z" style="animation:show 7s infinite;animation-delay:168ms;fill:#fff85e"/><path d="M258 34h12v12h-12z" style="animation:show 7s infinite;animation-delay:229.5ms;fill:#fff85e"/><path d="M258 50h12v12h-12z" style="animation:show 7s infinite;animation-delay:330ms;fill:#fff85e"/><path d="M258 66h12v12h-12z" style="animation:show 7s infinite;animation-delay:405ms;fill:#fff85e"/><path d="M258 82h12v12h-12z" style="animation:show 7s infinite;animation-delay:495ms;fill:#fff85e"/><path d="M258 98h12v12h-12z" style="animation:show 7s infinite;animation-delay:598.5ms;fill:#fff85e"/><path d="M258 114h12v12h-12z" style="animation:show 7s infinite;animation-delay:720ms;fill:#fff85e"/><path d="M258 130h12v12h-12z" style="animation:show 7s infinite;animation-delay:729ms;fill:#fff85e"/><path d="M258 146h12v12h-12z" style="animation:show 7s infinite;animation-delay:840ms;fill:#fff85e"/><path d="M258 162h12v12h-12z" style="animation:show 7s infinite;animation-delay:957ms;fill:#fff85e"/><path d="M258 178h12v12h-12z" style="animation:show 7s infinite;animation-delay:1080ms;fill:#fff85e"/><path d="M258 194h12v12h-12z" style="animation:show 7s infinite;animation-delay:1150.5ms;fill:#fff85e"/><path d="M258 210h12v12h-12z" style="animation:show 7s infinite;animation-delay:1092ms;fill:#fff85e"/><path d="M258 226h12v12h-12z" style="animation:show 7s infinite;animation-delay:1305ms;fill:#fff85e"/><path d="M258 242h12v12h-12z" style="animation:show 7s infinite;animation-delay:1392ms;fill:#fff85e"/><path d="M258 258h12v12h-12z" style="animation:show 7s infinite;animation-delay:1377ms;fill:#b1ab22"/><path d="M274 18h12v12h-12z" style="animation:show 7s infinite;animation-delay:153ms;fill:#fff85e"/><path d="M274 34h12v12h-12z" style="animation:show 7s infinite;animation-delay:229.5ms;fill:#fff85e"/><path d="M274 50h12v12h-12z" style="animation:show 7s infinite;animation-delay:348ms;fill:#fff85e"/><path d="M274 66h12v12h-12z" style="animation:show 7s infinite;animation-delay:390ms;fill:#fff85e"/><path d="M274 82h12v12h-12z" style="animation:show 7s infinite;animation-delay:486ms;fill:#fff85e"/><path d="M274 98h12v12h-12z" style="animation:show 7s infinite;animation-delay:535.5ms;fill:#fff85e"/><path d="M274 114h12v12h-12z" style="animation:show 7s infinite;animation-delay:648ms;fill:#fff85e"/><path d="M274 130h12v12h-12z" style="animation:show 7s infinite;animation-delay:688.5ms;fill:#fff85e"/><path d="M274 146h12v12h-12z" style="animation:show 7s infinite;animation-delay:900ms;fill:#fff85e"/><path d="M274 162h12v12h-12z" style="animation:show 7s infinite;animation-delay:940.5ms;fill:#fff85e"/><path d="M274 178h12v12h-12z" style="animation:show 7s infinite;animation-delay:1026ms;fill:#fff85e"/><path d="M274 194h12v12h-12z" style="animation:show 7s infinite;animation-delay:1150.5ms;fill:#fff85e"/><path d="M274 210h12v12h-12z" style="animation:show 7s infinite;animation-delay:1134ms;fill:#fff85e"/><path d="M274 226h12v12h-12z" style="animation:show 7s infinite;animation-delay:1147.5ms;fill:#fff85e"/><path d="M274 242h12v12h-12z" style="animation:show 7s infinite;animation-delay:1440ms;fill:#b1ab22"/><path d="M338 50h12v12h-12z" style="animation:show 7s infinite;animation-delay:306ms;fill:#fff85e"/><path d="M338 66h12v12h-12z" style="animation:show 7s infinite;animation-delay:420ms;fill:#fff85e"/><path d="M338 82h12v12h-12z" style="animation:show 7s infinite;animation-delay:513ms;fill:#fff85e"/><path d="M338 98h12v12h-12z" style="animation:show 7s infinite;animation-delay:567ms;fill:#fff85e"/><path d="M338 114h12v12h-12z" style="animation:show 7s infinite;animation-delay:720ms;fill:#b1ab22"/><path d="M338 178h12v12h-12z" style="animation:show 7s infinite;animation-delay:1080ms;fill:#fff85e"/><path d="M338 194h12v12h-12z" style="animation:show 7s infinite;animation-delay:1072.5ms;fill:#fff85e"/><path d="M338 210h12v12h-12z" style="animation:show 7s infinite;animation-delay:1134ms;fill:#fff85e"/><path d="M338 226h12v12h-12z" style="animation:show 7s infinite;animation-delay:1305ms;fill:#b1ab22"/><path d="M354 34h12v12h-12z" style="animation:show 7s infinite;animation-delay:247.5ms;fill:#fff85e"/><path d="M354 50h12v12h-12z" style="animation:show 7s infinite;animation-delay:330ms;fill:#fff85e"/><path d="M354 66h12v12h-12z" style="animation:show 7s infinite;animation-delay:382.5ms;fill:#fff85e"/><path d="M354 82h12v12h-12z" style="animation:show 7s infinite;animation-delay:486ms;fill:#fff85e"/><path d="M354 98h12v12h-12z" style="animation:show 7s infinite;animation-delay:609ms;fill:#fff85e"/><path d="M354 114h12v12h-12z" style="animation:show 7s infinite;animation-delay:708ms;fill:#fff85e"/><path d="M354 130h12v12h-12z" style="animation:show 7s infinite;animation-delay:742.5ms;fill:#fff85e"/><path d="M354 146h12v12h-12z" style="animation:show 7s infinite;animation-delay:780ms;fill:#b1ab22"/><path d="M354 178h12v12h-12z" style="animation:show 7s infinite;animation-delay:1026ms;fill:#fff85e"/><path d="M354 194h12v12h-12z" style="animation:show 7s infinite;animation-delay:1033.5ms;fill:#fff85e"/><path d="M354 210h12v12h-12z" style="animation:show 7s infinite;animation-delay:1239ms;fill:#fff85e"/><path d="M354 226h12v12h-12z" style="animation:show 7s infinite;animation-delay:1192.5ms;fill:#fff85e"/><path d="M354 242h12v12h-12z" style="animation:show 7s infinite;animation-delay:1368ms;fill:#b1ab22"/><path d="M370 18h12v12h-12z" style="animation:show 7s infinite;animation-delay:159ms;fill:#fff85e"/><path d="M370 34h12v12h-12z" style="animation:show 7s infinite;animation-delay:247.5ms;fill:#fff85e"/><path d="M370 50h12v12h-12z" style="animation:show 7s infinite;animation-delay:318ms;fill:#fff85e"/><path d="M370 66h12v12h-12z" style="animation:show 7s infinite;animation-delay:382.5ms;fill:#fff85e"/><path d="M370 82h12v12h-12z" style="animation:show 7s infinite;animation-delay:540ms;fill:#fff85e"/><path d="M370 98h12v12h-12z" style="animation:show 7s infinite;animation-delay:598.5ms;fill:#fff85e"/><path d="M370 114h12v12h-12z" style="animation:show 7s infinite;animation-delay:648ms;fill:#fff85e"/><path d="M370 130h12v12h-12z" style="animation:show 7s infinite;animation-delay:769.5ms;fill:#fff85e"/><path d="M370 146h12v12h-12z" style="animation:show 7s infinite;animation-delay:810ms;fill:#b1ab22"/><path d="M370 178h12v12h-12z" style="animation:show 7s infinite;animation-delay:918ms;fill:#fff85e"/><path d="M370 194h12v12h-12z" style="animation:show 7s infinite;animation-delay:1150.5ms;fill:#fff85e"/><path d="M370 210h12v12h-12z" style="animation:show 7s infinite;animation-delay:1071ms;fill:#fff85e"/><path d="M370 226h12v12h-12z" style="animation:show 7s infinite;animation-delay:1170ms;fill:#fff85e"/><path d="M370 242h12v12h-12z" style="animation:show 7s infinite;animation-delay:1344ms;fill:#fff85e"/><path d="M370 258h12v12h-12z" style="animation:show 7s infinite;animation-delay:1428ms;fill:#b1ab22"/><path d="M386 18h12v12h-12z" style="animation:show 7s infinite;animation-delay:168ms;fill:#fff85e"/><path d="M386 34h12v12h-12z" style="animation:show 7s infinite;animation-delay:256.5ms;fill:#fff85e"/><path d="M386 50h12v12h-12z" style="animation:show 7s infinite;animation-delay:306ms;fill:#fff85e"/><path d="M386 66h12v12h-12z" style="animation:show 7s infinite;animation-delay:442.5ms;fill:#b1ab22"/><path d="M386 98h12v12h-12z" style="animation:show 7s infinite;animation-delay:577.5ms;fill:#fff85e"/><path d="M386 114h12v12h-12z" style="animation:show 7s infinite;animation-delay:648ms;fill:#fff85e"/><path d="M386 130h12v12h-12z" style="animation:show 7s infinite;animation-delay:756ms;fill:#fff85e"/><path d="M386 146h12v12h-12z" style="animation:show 7s infinite;animation-delay:885ms;fill:#fff85e"/><path d="M386 162h12v12h-12z" style="animation:show 7s infinite;animation-delay:940.5ms;fill:#b1ab22"/><path d="M386 210h12v12h-12z" style="animation:show 7s infinite;animation-delay:1260ms;fill:#fff85e"/><path d="M386 226h12v12h-12z" style="animation:show 7s infinite;animation-delay:1237.5ms;fill:#fff85e"/><path d="M386 242h12v12h-12z" style="animation:show 7s infinite;animation-delay:1296ms;fill:#fff85e"/><path d="M386 258h12v12h-12z" style="animation:show 7s infinite;animation-delay:1402.5ms;fill:#b1ab22"/><path d="M402 18h12v12h-12z" style="animation:show 7s infinite;animation-delay:159ms;fill:#fff85e"/><path d="M402 34h12v12h-12z" style="animation:show 7s infinite;animation-delay:270ms;fill:#fff85e"/><path d="M402 50h12v12h-12z" style="animation:show 7s infinite;animation-delay:342ms;fill:#fff85e"/><path d="M402 66h12v12h-12z" style="animation:show 7s infinite;animation-delay:435ms;fill:#b1ab22"/><path d="M402 114h12v12h-12z" style="animation:show 7s infinite;animation-delay:636ms;fill:#fff85e"/><path d="M402 130h12v12h-12z" style="animation:show 7s infinite;animation-delay:783ms;fill:#fff85e"/><path d="M402 146h12v12h-12z" style="animation:show 7s infinite;animation-delay:900ms;fill:#fff85e"/><path d="M402 162h12v12h-12z" style="animation:show 7s infinite;animation-delay:907.5ms;fill:#b1ab22"/><path d="M402 210h12v12h-12z" style="animation:show 7s infinite;animation-delay:1239ms;fill:#fff85e"/><path d="M402 226h12v12h-12z" style="animation:show 7s infinite;animation-delay:1305ms;fill:#fff85e"/><path d="M402 242h12v12h-12z" style="animation:show 7s infinite;animation-delay:1368ms;fill:#fff85e"/><path d="M402 258h12v12h-12z" style="animation:show 7s infinite;animation-delay:1453.5ms;fill:#b1ab22"/><path d="M418 18h12v12h-12z" style="animation:show 7s infinite;animation-delay:174ms;fill:#fff85e"/><path d="M418 34h12v12h-12z" style="animation:show 7s infinite;animation-delay:265.5ms;fill:#fff85e"/><path d="M418 50h12v12h-12z" style="animation:show 7s infinite;animation-delay:330ms;fill:#fff85e"/><path d="M418 66h12v12h-12z" style="animation:show 7s infinite;animation-delay:397.5ms;fill:#fff85e"/><path d="M418 82h12v12h-12z" style="animation:show 7s infinite;animation-delay:522ms;fill:#fff85e"/><path d="M418 98h12v12h-12z" style="animation:show 7s infinite;animation-delay:588ms;fill:#b1ab22"/><path d="M418 130h12v12h-12z" style="animation:show 7s infinite;animation-delay:796.5ms;fill:#fff85e"/><path d="M418 146h12v12h-12z" style="animation:show 7s infinite;animation-delay:870ms;fill:#fff85e"/><path d="M418 162h12v12h-12z" style="animation:show 7s infinite;animation-delay:957ms;fill:#fff85e"/><path d="M418 178h12v12h-12z" style="animation:show 7s infinite;animation-delay:954ms;fill:#b1ab22"/><path d="M418 210h12v12h-12z" style="animation:show 7s infinite;animation-delay:1176ms;fill:#fff85e"/><path d="M418 226h12v12h-12z" style="animation:show 7s infinite;animation-delay:1170ms;fill:#fff85e"/><path d="M418 242h12v12h-12z" style="animation:show 7s infinite;animation-delay:1368ms;fill:#fff85e"/><path d="M418 258h12v12h-12z" style="animation:show 7s infinite;animation-delay:1300.5ms;fill:#b1ab22"/><path d="M434 34h12v12h-12z" style="animation:show 7s infinite;animation-delay:229.5ms;fill:#fff85e"/><path d="M434 50h12v12h-12z" style="animation:show 7s infinite;animation-delay:324ms;fill:#fff85e"/><path d="M434 66h12v12h-12z" style="animation:show 7s infinite;animation-delay:390ms;fill:#fff85e"/><path d="M434 82h12v12h-12z" style="animation:show 7s infinite;animation-delay:540ms;fill:#fff85e"/><path d="M434 98h12v12h-12z" style="animation:show 7s infinite;animation-delay:619.5ms;fill:#b1ab22"/><path d="M434 130h12v12h-12z" style="animation:show 7s infinite;animation-delay:715.5ms;fill:#fff85e"/><path d="M434 146h12v12h-12z" style="animation:show 7s infinite;animation-delay:885ms;fill:#fff85e"/><path d="M434 162h12v12h-12z" style="animation:show 7s infinite;animation-delay:940.5ms;fill:#fff85e"/><path d="M434 178h12v12h-12z" style="animation:show 7s infinite;animation-delay:1026ms;fill:#fff85e"/><path d="M434 194h12v12h-12z" style="animation:show 7s infinite;animation-delay:1033.5ms;fill:#fff85e"/><path d="M434 210h12v12h-12z" style="animation:show 7s infinite;animation-delay:1071ms;fill:#fff85e"/><path d="M434 226h12v12h-12z" style="animation:show 7s infinite;animation-delay:1215ms;fill:#fff85e"/><path d="M434 242h12v12h-12z" style="animation:show 7s infinite;animation-delay:1272ms;fill:#fff85e"/><path d="M434 258h12v12h-12z" style="animation:show 7s infinite;animation-delay:1402.5ms;fill:#b1ab22"/><path d="M450 34h12v12h-12z" style="animation:show 7s infinite;animation-delay:252ms;fill:#fff85e"/><path d="M450 50h12v12h-12z" style="animation:show 7s infinite;animation-delay:342ms;fill:#fff85e"/><path d="M450 66h12v12h-12z" style="animation:show 7s infinite;animation-delay:442.5ms;fill:#fff85e"/><path d="M450 82h12v12h-12z" style="animation:show 7s infinite;animation-delay:540ms;fill:#fff85e"/><path d="M450 98h12v12h-12z" style="animation:show 7s infinite;animation-delay:630ms;fill:#b1ab22"/><path d="M450 146h12v12h-12z" style="animation:show 7s infinite;animation-delay:780ms;fill:#fff85e"/><path d="M450 162h12v12h-12z" style="animation:show 7s infinite;animation-delay:940.5ms;fill:#fff85e"/><path d="M450 178h12v12h-12z" style="animation:show 7s infinite;animation-delay:1026ms;fill:#fff85e"/><path d="M450 194h12v12h-12z" style="animation:show 7s infinite;animation-delay:1150.5ms;fill:#fff85e"/><path d="M450 210h12v12h-12z" style="animation:show 7s infinite;animation-delay:1071ms;fill:#fff85e"/><path d="M450 226h12v12h-12z" style="animation:show 7s infinite;animation-delay:1192.5ms;fill:#fff85e"/><path d="M450 242h12v12h-12z" style="animation:show 7s infinite;animation-delay:1392ms;fill:#b1ab22"/><path d="M466 162h12v12h-12z" style="animation:show 7s infinite;animation-delay:874.5ms;fill:#fff85e"/><path d="M466 178h12v12h-12z" style="animation:show 7s infinite;animation-delay:918ms;fill:#fff85e"/><path d="M466 194h12v12h-12z" style="animation:show 7s infinite;animation-delay:1014ms;fill:#fff85e"/><path d="M466 210h12v12h-12z" style="animation:show 7s infinite;animation-delay:1071ms;fill:#fff85e"/><path d="M466 226h12v12h-12z" style="animation:show 7s infinite;animation-delay:1282.5ms;fill:#b1ab22"/><style data-vite-dev-id="C:/Users/DamirLut/Documents/Projects/svg-animation/style.scss">@keyframes show{0%,to{opacity:1}50%{opacity:0}}</style></svg>